<svg xmlns="http://www.w3.org/2000/svg" xmlns:xlink="http://www.w3.org/1999/xlink" width="24" height="24" viewBox="0 0 61.857 59.317">
  <defs>
    <clipPath id="clip-path">
      <path id="Path_133004" data-name="Path 133004" d="M453.99,54.461V37.234a6.546,6.546,0,0,1,12.379-2.957,6.471,6.471,0,0,1,.714,2.957V54.461a6.736,6.736,0,0,1-.054.831,6.361,6.361,0,0,1-.673,2.16,6.543,6.543,0,0,1-12.366-2.991M469.775,57.7c.1-.284.183-.574.256-.866.017-.068.029-.138.044-.206q.094-.415.151-.836c.013-.1.026-.19.037-.286a9.875,9.875,0,0,0,.063-1.042V37.234a9.84,9.84,0,0,0-.06-1.02c-.009-.079-.017-.157-.027-.235a9.606,9.606,0,0,0-.174-.976c-.011-.05-.028-.1-.04-.147-.043-.168-.085-.338-.137-.5,2.526-1.162,11.942-6.24,11.494-17.174-.239-5.719,1.931-8.339,4.042-8.884A2.545,2.545,0,0,1,488.4,9.315c1.741,3.473,2.285,15.734.8,17.491a1.621,1.621,0,0,0,.65,3.107h7.56c1,0,1.983-.075,2.936-.147a18.52,18.52,0,0,1,4.809.036,2.175,2.175,0,0,1,1.725,1.084,5.376,5.376,0,0,1,.784,1.731c0,.3-.078,1.139-.123,1.6-.128,1.323-.177,1.836.362,2.394a5.339,5.339,0,0,1,.228,7,1.63,1.63,0,0,0-.2,1.716c.3.63.956,2.541.392,3.8a2.528,2.528,0,0,1-1.757,1.3,1.625,1.625,0,0,0-.786,2.6,5.441,5.441,0,0,1,1.293,3.856,4.025,4.025,0,0,1-2.326,2.592c-3.221,1.729-9.671,1.583-14.855,1.466-1.309-.03-2.571-.058-3.74-.058-.678,0-1.324.009-1.929.034-.165.007-.338.01-.515.01-4.039,0-11.277-1.67-13.932-3.234M484.614,5.153c-3.338.862-6.79,4.508-6.471,12.157.384,9.352-8.008,13.42-9.715,14.149a9.914,9.914,0,0,0-.979-1.142,9.781,9.781,0,0,0-16.7,6.916V54.461a9.779,9.779,0,0,0,17.462,6.065c3.6,2.062,12.078,3.8,16.145,3.634,1.545-.063,3.447-.02,5.463.026,1.451.033,2.95.067,4.445.067,4.535,0,9.028-.313,12.019-1.918a7.048,7.048,0,0,0,3.98-4.863,7.571,7.571,0,0,0-.879-4.8,5.219,5.219,0,0,0,1.9-2.233,7.846,7.846,0,0,0-.058-5.585,8.49,8.49,0,0,0-.506-9.907c.013-.127.026-.267.04-.415a9.178,9.178,0,0,0,.086-2.5,8.413,8.413,0,0,0-1.266-2.923,5.325,5.325,0,0,0-3.835-2.49,21.314,21.314,0,0,0-5.653-.082c-.935.071-1.817.138-2.69.138H492.7c1.257-4.852.345-15.32-1.4-18.807a5.479,5.479,0,0,0-5.009-2.926,6.7,6.7,0,0,0-1.673.215" transform="translate(-450.748 -4.938)"/>
    </clipPath>
  </defs>
  <g id="Like-Icon-iuhds" clip-path="url(#clip-path)">
    <rect id="Rectangle_59617" data-name="Rectangle 59617" width="63.056" height="59.393" transform="translate(0 0)"/>
  </g>
</svg>
